# xmcd CD database file generated by Grip 3.2.0
# 
# Track frame offsets:
#       215
#       8930
#       23252
#       45072
#       61780
#       74180
#       86010
#       106485
#       129257
#       169402
#       196005
#       223607
#       233015
#       247652
#       264412
#       279797
# 
# Disc length: 3926 seconds
# 
# Revision: 5
# Processed by: cddbd v1.5.2PL0 Copyright (c) Steve Scherf et al.
# Submitted via: Grip 3.2.0
# 
DISCID=c50f5410
DTITLE=Various Artist - Mississippi delta blues jam in Memphis, vol. 1
DYEAR=1969
DGENRE=Blues
TTITLE0=Napoleon Strickland - Back water rising
TTITLE1=Fred McDowell and Johnny Woods - Shake 'em on down
TTITLE2=Fred McDowell and Johnny Woods - Fred's blues
TTITLE3=Fred McDowell and Johnny Woods - Keep your lamp trimmed and burning
TTITLE4=Otha Turner - Otha's piece
TTITLE5=Napoleon Strickland - Shimmy she wobble
TTITLE6=Fred McDowell - Write me a few of your lines
TTITLE7=Fred McDowell - A dark cloud rising
TTITLE8=Furry Lewis - Furry Lewis' blues
TTITLE9=Furry Lewis - Walking blues
TTITLE10=Furry Lewis - Judge Bushay blues
TTITLE11=R.L. Watson and Josiah Jones - Memphis rag
TTITLE12=R.L. Watson and Josiah Jones - St. Louis blues
TTITLE13=R.L. Watson and Josiah Jones - Praying on the old campground and lonesome 
TTITLE13=blues
TTITLE14=Memphis Piano Red - Mobile blues
TTITLE15=Memphis Piano Red - Abel Street stomp
EXTD=YEAR: 1969
EXTT0=
EXTT1=
EXTT2=
EXTT3=
EXTT4=
EXTT5=
EXTT6=
EXTT7=
EXTT8=
EXTT9=
EXTT10=
EXTT11=
EXTT12=
EXTT13=
EXTT14=
EXTT15=
PLAYORDER=
